#!OML:ASF F:\twosubjects\two\Thursday\Session 1\Rory.ASF
:FULLY-SPECIFIED
:DEGREES
292
root 7.56699 10.5797 7.78913 161.556 -4.3873 -179.501
lowerback 32.8735 1.56014 1.29654
upperback 11.8953 -1.33327 -1.55948
thorax -4.37909 -2.09832 -1.91175
lowerneck -15.244 -3.81434 -4.1412
upperneck 7.99977 -4.76424 4.08655
head 5.07688 -2.19199 1.52589
rclavicle 1.5704e-014 -1.11319e-014
rhumerus 27.5204 9.52761 -83.6142
rradius 56.0325
rwrist 25.9333
rhand -23.5287 27.8045
rfingers 7.12502
rthumb 2.93252 -2.15504
lclavicle 1.5704e-014 -1.11319e-014
lhumerus 30.1558 -20.3657 73.769
lradius 54.8584
lwrist -22.6797
lhand -23.2039 22.3176
lfingers 7.12502
lthumb 3.24618 52.2726
rfemur -57.953 -14.0345 -8.49138
rtibia 109.011
rfoot -20.1483 -2.36334
rtoes -22.6333
lfemur -52.4093 23.0434 10.2327
ltibia 113.199
lfoot -26.587 -6.00248
ltoes -13.5916
293
root 7.56723 10.5741 7.78523 161.664 -4.4918 -179.751
lowerback 32.9215 1.55529 1.10103
upperback 11.8553 -1.39857 -1.66306
thorax -4.45238 -2.12828 -1.88942
lowerneck -15.3106 -3.81785 -4.1406
upperneck 8.04132 -4.77031 4.10589
head 5.10142 -2.19264 1.53005
rclavicle 9.93923e-016 5.56597e-015
rhumerus 27.7679 9.52625 -83.6171
rradius 55.6065
rwrist 25.6958
rhand -24.6767 27.2127
rfingers 7.12502
rthumb 1.82384 -2.75921
lclavicle 9.93923e-016 5.56597e-015
lhumerus 30.2722 -20.4514 73.4408
lradius 54.6063
lwrist -22.2132
lhand -23.6536 22.932
lfingers 7.12502
lthumb 2.81185 52.8933
rfemur -58.0218 -14.2309 -8.8425
rtibia 109.03
rfoot -20.1114 -2.14054
rtoes -22.2082
lfemur -52.5454 23.0237 9.90875
ltibia 113.25
lfoot -26.5647 -6.14412
ltoes -12.7762
294
root 7.56447 10.5774 7.78411 161.803 -4.59953 -179.929
lowerback 32.9228 1.52388 0.995795
upperback 11.7877 -1.45262 -1.75064
thorax -4.5357 -2.14446 -1.90575
lowerneck -15.173 -3.80738 -4.15436
upperneck 7.96581 -4.77006 4.21611
head 5.05889 -2.18785 1.56923
rclavicle -1.5704e-014 -2.94201e-014
rhumerus 27.9887 9.29831 -83.8962
rradius 55.062
rwrist 25.5723
rhand -25.6361 27.2914
rfingers 7.12502
rthumb 0.897182 -2.68645
lclavicle -1.5704e-014 -2.94201e-014
lhumerus 30.324 -20.7237 72.9805
lradius 54.4483
lwrist -21.6427
lhand -24.2384 24.0713
lfingers 7.12502
lthumb 2.24713 54.0392
rfemur -58.1098 -14.4558 -9.08831
rtibia 109.019
rfoot -20.1149 -2.00981
rtoes -22.2683
lfemur -52.6993 22.918 9.59367
ltibia 113.276
lfoot -26.5461 -6.26506
ltoes -12.0034
295
root 7.56416 10.5811 7.78274 161.902 -4.53406 -180.003
lowerback 32.9394 1.54418 0.957381
upperback 11.7614 -1.43766 -1.79797
thorax -4.57379 -2.13493 -1.94078
lowerneck -15.3344 -3.76252 -4.10168
upperneck 8.0748 -4.7209 4.2365
head 5.11638 -2.15821 1.56877
rclavicle -3.97569e-015 2.46493e-014
rhumerus 28.3164 9.11777 -84.119
rradius 54.4355
rwrist 25.4858
rhand -26.3652 27.9859
rfingers 7.12502
rthumb 0.193032 -1.99376
lclavicle -3.97569e-015 2.46493e-014
lhumerus 30.6155 -20.5693 73.3281
lradius 54.0154
lwrist -21.6434
lhand -24.4044 24.0362
lfingers 7.12502
lthumb 2.08677 54.0058
rfemur -58.1747 -14.5246 -9.10449
rtibia 108.971
rfoot -20.1145 -1.99779
rtoes -22.6342
lfemur -52.7139 23.0017 9.51021
ltibia 113.269
lfoot -26.6307 -6.44382
ltoes -11.9238
296
root 7.5659 10.5803 7.77889 161.971 -4.36984 -179.997
lowerback 32.9029 1.63362 0.973406
upperback 11.7645 -1.31771 -1.77418
thorax -4.54813 -2.07739 -1.96665
lowerneck -15.3721 -3.75227 -4.10349
upperneck 8.02545 -4.70701 4.25412
head 5.10695 -2.15057 1.57558
rclavicle -5.96354e-016 -1.19271e-014
rhumerus 28.5331 8.93834 -84.0826
rradius 54.0088
rwrist 25.1999
rhand -27.184 28.0232
rfingers 7.12502
rthumb -0.597842 -1.95568
lclavicle -5.96354e-016 -1.19271e-014
lhumerus 30.5589 -20.4404 73.9292
lradius 53.8398
lwrist -21.9813
lhand -24.4216 23.3888
lfingers 7.12502
lthumb 2.07014 53.3585
rfemur -58.3536 -14.4093 -8.95887
rtibia 108.995
rfoot -20.0764 -2.17674
rtoes -22.9086
lfemur -52.6688 23.236 9.62499
ltibia 113.272
lfoot -26.641 -6.58173
ltoes -12.3081
297
root 7.56468 10.5828 7.77877 161.945 -4.39719 -180.018
lowerback 33.0422 1.62055 0.994183
upperback 11.7916 -1.34928 -1.76047
thorax -4.57865 -2.10135 -1.95008
lowerneck -15.5197 -3.71501 -4.16589
upperneck 8.02771 -4.64511 4.29632
head 5.13144 -2.11804 1.60243
rclavicle 3.97569e-016 -9.54166e-015
rhumerus 28.727 8.81712 -84.0906
rradius 53.6815
rwrist 24.8654
rhand -28.2628 27.3301
rfingers 7.12502
rthumb -1.6397 -2.64333
lclavicle 3.97569e-016 -9.54166e-015
lhumerus 30.4354 -20.7204 73.5391
lradius 54.1775
lwrist -21.7583
lhand -24.4859 24.0802
lfingers 7.12502
lthumb 2.00804 54.0505
rfemur -58.445 -14.3758 -8.99298
rtibia 109.064
rfoot -20.0279 -2.17318
rtoes -22.6534
lfemur -52.6571 23.2057 9.57144
ltibia 113.269
lfoot -26.5081 -6.23233
ltoes -13.0693
298
root 7.5656 10.5798 7.77832 162.042 -4.44087 -180.162
lowerback 33.5114 1.64191 0.778246
upperback 11.4397 -1.39677 -1.78674
thorax -4.60055 -2.12852 -1.69261
lowerneck -15.97 -3.68821 -4.2944
upperneck 8.17388 -4.57507 4.32765
head 5.25068 -2.07986 1.63248
rclavicle 6.16232e-015 3.73715e-014
rhumerus 29.0302 8.78751 -84.0308
rradius 53.3759
rwrist 24.3656
rhand -29.3439 27.164
rfingers 7.12502
rthumb -2.6838 -2.79891
lclavicle 6.16232e-015 3.73715e-014
lhumerus 30.6508 -21 72.844
lradius 54.0687
lwrist -21.0068
lhand -25.0278 24.3441
lfingers 7.12502
lthumb 1.48469 54.3186
rfemur -58.6067 -14.5243 -9.17829
rtibia 109.105
rfoot -19.9216 -1.92923
rtoes -22.2577
lfemur -52.7997 23.2657 9.35527
ltibia 113.298
lfoot -26.38 -6.15884
ltoes -12.531
